#!OML:ASF X:\für Bonn\!DataBase\2005_08_10_Bjorn_Final\c3d\bjorn.ASF
:FULLY-SPECIFIED
:DEGREES
61
root 1.49285 19.1123 2.01757 -202.292 -7.72371 170.948
lowerback 26.3089 6.35882 -6.28777
upperback 15.3713 1.31418 -9.28933
thorax 2.67073 -1.57898 -7.17901
lowerneck -9.45132 -1.98554 -14.7104
upperneck 4.65289 -1.9167 14.3097
head 3.2148 -0.671039 6.76526
rclavicle -4.53229e-014 -3.33958e-014
rhumerus -12.4507 3.76088 -80.6488
rradius 46.2208
rwrist 7.12708
rhand -19.2393 25.897
rfingers 7.12502
rthumb 7.07411 -3.96482
lclavicle -4.53229e-014 -3.33958e-014
lhumerus -333.505 71.4437 -254.764
lradius 9.08955
lwrist -92.9793
lhand -33.7518 1.20357
lfingers 7.12502
lthumb -6.93996 31.0698
rfemur 8.5379 -0.910432 11.7679
rtibia 35.1071
rfoot -12.9619 5.62745
rtoes -7.17015
lfemur -74.5097 19.3911 -22.9193
ltibia 140.932
lfoot -7.95451 -14.5754
ltoes -24.1564
62
root 1.50026 19.1322 1.97331 -203.806 -7.76435 170.598
lowerback 27.2782 6.99921 -6.55561
upperback 15.769 1.62706 -9.50618
thorax 2.72143 -1.57665 -7.42489
lowerneck -9.16165 -2.043 -14.5228
upperneck 4.82489 -2.11163 14.6759
head 3.24972 -0.765831 6.84321
rclavicle -8.50798e-014 -7.95139e-014
rhumerus -11.5313 3.78887 -79.8814
rradius 46.1341
rwrist 7.21959
rhand -19.6874 26.0517
rfingers 7.12502
rthumb 6.64163 -3.82417
lclavicle -8.50798e-014 -7.95139e-014
lhumerus -338.034 61.7481 -260.627
lradius 8.67749
lwrist -83.9673
lhand -33.8457 1.00282
lfingers 7.12502
lthumb -7.0306 30.8661
rfemur 10.3506 -1.16408 11.3383
rtibia 35.0367
rfoot -12.3339 5.09118
rtoes -8.27229
lfemur -77.9996 17.9443 -24.2554
ltibia 139.562
lfoot -8.76288 -12.553
ltoes -22.9778
63
root 1.50562 19.1496 1.92425 -205.245 -7.69762 170.392
lowerback 28.2766 7.64181 -6.73616
upperback 16.1898 2.01081 -9.87636
thorax 2.59634 -1.54331 -7.43914
lowerneck -8.76101 -2.06539 -14.2578
upperneck 4.89924 -2.27213 14.9945
head 3.23045 -0.849225 6.89311
rclavicle -6.75868e-014 -9.85972e-014
rhumerus -10.6277 3.60944 -79.0644
rradius 45.9506
rwrist 7.41183
rhand -20.0022 26.0908
rfingers 7.12502
rthumb 6.33771 -3.79438
lclavicle -6.75868e-014 -9.85972e-014
lhumerus -339.737 51.966 -264.053
lradius 8.37988
lwrist -75.369
lhand -33.983 0.741277
lfingers 7.12502
lthumb -7.16318 30.6
rfemur 11.9822 -1.26563 11.1342
rtibia 35.1098
rfoot -11.7248 4.50209
rtoes -9.37303
lfemur -81.3042 16.7147 -25.2454
ltibia 137.903
lfoot -9.38122 -10.4502
ltoes -21.7412
64
root 1.50839 19.1542 1.8705 -206.673 -7.52914 170.265
lowerback 29.0538 8.26054 -6.82325
upperback 16.5486 2.3861 -10.0058
thorax 2.70469 -1.49161 -7.67473
lowerneck -8.30781 -2.03636 -13.8809
upperneck 4.91403 -2.36649 15.2043
head 3.17154 -0.904773 6.89111
rclavicle 2.06736e-014 1.33583e-013
rhumerus -9.71794 3.47101 -78.2489
rradius 45.6458
rwrist 7.37224
rhand -20.1448 26.0122
rfingers 7.12502
rthumb 6.20005 -3.87712
lclavicle 2.06736e-014 1.33583e-013
lhumerus -340.198 42.2765 -266.701
lradius 8.15232
lwrist -67.2434
lhand -34.3263 0.593313
lfingers 7.12502
lthumb -7.49455 30.4405
rfemur 13.49 -1.15277 11.118
rtibia 35.3419
rfoot -11.2199 3.80856
rtoes -10.635
lfemur -84.3836 15.7464 -25.9883
ltibia 136.014
lfoot -10.03 -8.32756
ltoes -20.6404
65
root 1.50916 19.1383 1.8131 -208.121 -7.34831 170.206
lowerback 29.8052 8.84873 -6.70248
upperback 16.9734 2.75696 -10.1567
thorax 2.91209 -1.4362 -8.05276
lowerneck -7.84537 -2.01713 -13.4279
upperneck 4.82109 -2.47227 15.4107
head 3.07994 -0.967936 6.87313
rclavicle 2.94201e-014 -7.63333e-014
rhumerus -8.68552 3.1298 -77.4587
rradius 45.0882
rwrist 7.53867
rhand -20.1831 25.9652
rfingers 7.12502
rthumb 6.16304 -3.92518
lclavicle 2.94201e-014 -7.63333e-014
lhumerus -339.877 32.5732 -269.251
lradius 8.03247
lwrist -59.23
lhand -35.0162 0.307689
lfingers 7.12502
lthumb -8.16038 30.1301
rfemur 14.9479 -0.912241 11.2524
rtibia 35.6863
rfoot -10.8355 3.03673
rtoes -11.8827
lfemur -87.3066 14.9176 -26.5722
ltibia 133.965
lfoot -11.0114 -6.05951
ltoes -21.2526
